<?xml version="1.0" standalone="no"?>
<!DOCTYPE svg PUBLIC "-//W3C//DTD SVG 20010904//EN"
 "http://www.w3.org/TR/2001/REC-SVG-20010904/DTD/svg10.dtd">
<svg version="1.0" xmlns="http://www.w3.org/2000/svg" viewBox="0 0 24 24">
<g fill="#ffffff">
<path d="M 23 3 c -6.62 -0.1 -10.38 2.421 -13.05 6.03 C 7.29 12.61 6 17.331 6 22 h 2 c 0 -1.007 0.07 -2.012 0.19 -3 H 12 c 4.1 0 7.48 -3.082 7.94 -7.054 C 22.79 10.147 23.17 6.359 23 3 Z m -7 8 h -1.5 v 2 H 16 c 0.63 -0.016 1.2 -0.08 1.72 -0.188 C 16.95 15.24 14.68 17 12 17 H 8.55 c 0.57 -2.512 1.57 -4.851 3 -6.78 c 2.16 -2.912 5.29 -4.911 9.45 -5.187 C 20.95 8.079 19.9 11 16 11 Z M 4 9 V 6 H 1 V 4 h 3 V 1 h 2 v 3 h 3 v 2 H 6 v 3 H 4 Z"/>
</g>
</svg>
