<svg xmlns="http://www.w3.org/2000/svg" viewBox="0 0 24 24">
    <path d="M 11.999 22.25 c -5.652 0 -10.25 -4.598 -10.25 -10.25 S 6.347 1.75 11.999 1.75 S 22.249 6.348 22.249 12 s -4.598 10.25 -10.25 10.25 Z m 0 -18.5 c -4.549 0 -8.25 3.701 -8.25 8.25 s 3.701 8.25 8.25 8.25 s 8.25 -3.701 8.25 -8.25 s -3.701 -8.25 -8.25 -8.25 Z m 0.445 6.992 c 1.747 -0.096 3.748 -0.689 3.768 -0.695 l 0.575 1.916 c -0.077 0.022 -1.616 0.48 -3.288 0.689 v 0.498 c 0.287 1.227 1.687 2.866 2.214 3.405 l -1.428 1.4 c -0.188 -0.191 -1.518 -1.576 -2.286 -3.144 c -0.769 1.568 -2.098 2.952 -2.286 3.144 l -1.428 -1.4 c 0.527 -0.54 1.927 -2.178 2.214 -3.405 v -0.498 c -1.672 -0.209 -3.211 -0.667 -3.288 -0.689 l 0.575 -1.916 c 0.02 0.006 2.021 0.6 3.768 0.695 m 0 0 c 0.301 0.017 0.59 0.017 0.891 0 M 12 6.25 c -0.967 0 -1.75 0.78 -1.75 1.75 s 0.783 1.75 1.75 1.75 s 1.75 -0.78 1.75 -1.75 s -0.784 -1.75 -1.75 -1.75 Z"/>
</svg>