<svg xmlns="http://www.w3.org/2000/svg" viewBox="0 0 24 24">
    <path d="M 11.57 11.96 l 0.99 -0.79 c 0.33 -0.26 0.56 -0.53 0.7 -0.8 c 0.15 -0.27 0.22 -0.57 0.22 -0.91 c 0 -0.41 -0.12 -0.74 -0.38 -0.97 s -0.62 -0.35 -1.09 -0.35 s -0.85 0.12 -1.13 0.37 c -0.26 0.25 -0.4 0.59 -0.4 1.03 c 0 0.2 0.03 0.42 0.08 0.65 l -2.07 -0.15 c -0.06 -0.29 -0.09 -0.55 -0.09 -0.79 c 0 -0.84 0.33 -1.51 0.98 -2.01 c 0.67 -0.49 1.55 -0.74 2.66 -0.74 c 1.17 0 2.07 0.24 2.71 0.73 c 0.63 0.48 0.95 1.16 0.95 2.04 c 0 0.98 -0.47 1.86 -1.4 2.65 l -0.87 0.73 c -0.17 0.15 -0.29 0.28 -0.36 0.4 c -0.06 0.11 -0.09 0.26 -0.09 0.45 v 0.46 h -2.1 v -0.67 c 0 -0.3 0.06 -0.55 0.17 -0.75 c 0.12 -0.2 0.29 -0.39 0.52 -0.58 Z m -0.52 5.17 c 0.24 0.25 0.56 0.37 0.93 0.37 c 0.39 0 0.7 -0.12 0.94 -0.37 c 0.25 -0.25 0.37 -0.56 0.37 -0.94 c 0 -0.39 -0.12 -0.7 -0.37 -0.95 c -0.24 -0.25 -0.55 -0.37 -0.94 -0.37 c -0.37 0 -0.69 0.12 -0.93 0.37 s -0.36 0.56 -0.36 0.95 c 0 0.38 0.12 0.69 0.36 0.94 Z M 22.25 12 c 0 5.66 -4.59 10.25 -10.25 10.25 S 1.75 17.66 1.75 12 S 6.34 1.75 12 1.75 S 22.25 6.34 22.25 12 Z M 12 20.25 c 4.56 0 8.25 -3.69 8.25 -8.25 S 16.56 3.75 12 3.75 S 3.75 7.44 3.75 12 s 3.69 8.25 8.25 8.25 Z"/>
</svg>