<svg xmlns="http://www.w3.org/2000/svg" viewBox="0 0 24 24">
    <path d="M 7 4 V 3 h 2 v 1 h 6 V 3 h 2 v 1 h 1.5 C 19.89 4 21 5.12 21 6.5 v 12 c 0 1.38 -1.11 2.5 -2.5 2.5 h -13 C 4.12 21 3 19.88 3 18.5 v -12 C 3 5.12 4.12 4 5.5 4 H 7 Z m 0 2 H 5.5 c -0.27 0 -0.5 0.22 -0.5 0.5 v 12 c 0 0.28 0.23 0.5 0.5 0.5 h 13 c 0.28 0 0.5 -0.22 0.5 -0.5 v -12 c 0 -0.28 -0.22 -0.5 -0.5 -0.5 H 17 v 1 h -2 V 6 H 9 v 1 H 7 V 6 Z m 0 6 h 2 v -2 H 7 v 2 Z m 0 4 h 2 v -2 H 7 v 2 Z m 4 -4 h 2 v -2 h -2 v 2 Z m 0 4 h 2 v -2 h -2 v 2 Z m 4 -4 h 2 v -2 h -2 v 2 Z"/>
</svg>