<svg xmlns="http://www.w3.org/2000/svg"  
	 viewBox="0 0 24 24">
<path d="M 10.54 1.75 h 2.92 l 1.57 2.36 c 0.11 0.17 0.32 0.25 0.53 0.21 l 2.53 -0.59 l 2.17 2.17 l -0.58 2.54 c -0.05 0.2 0.04 0.41 0.21 0.53 l 2.36 1.57 v 2.92 l -2.36 1.57 c -0.17 0.12 -0.26 0.33 -0.21 0.53 l 0.58 2.54 l -2.17 2.17 l -2.53 -0.59 c -0.21 -0.04 -0.42 0.04 -0.53 0.21 l -1.57 2.36 h -2.92 l -1.58 -2.36 c -0.11 -0.17 -0.32 -0.25 -0.52 -0.21 l -2.54 0.59 l -2.17 -2.17 l 0.58 -2.54 c 0.05 -0.2 -0.03 -0.41 -0.21 -0.53 l -2.35 -1.57 v -2.92 L 4.1 8.97 c 0.18 -0.12 0.26 -0.33 0.21 -0.53 L 3.73 5.9 L 5.9 3.73 l 2.54 0.59 c 0.2 0.04 0.41 -0.04 0.52 -0.21 l 1.58 -2.36 Z m 1.07 2 l -0.98 1.47 C 10.05 6.08 9 6.5 7.99 6.27 l -1.46 -0.34 l -0.6 0.6 l 0.33 1.46 c 0.24 1.01 -0.18 2.07 -1.05 2.64 l -1.46 0.98 v 0.78 l 1.46 0.98 c 0.87 0.57 1.29 1.63 1.05 2.64 l -0.33 1.46 l 0.6 0.6 l 1.46 -0.34 c 1.01 -0.23 2.06 0.19 2.64 1.05 l 0.98 1.47 h 0.78 l 0.97 -1.47 c 0.58 -0.86 1.63 -1.28 2.65 -1.05 l 1.45 0.34 l 0.61 -0.6 l -0.34 -1.46 c -0.23 -1.01 0.18 -2.07 1.05 -2.64 l 1.47 -0.98 v -0.78 l -1.47 -0.98 c -0.87 -0.57 -1.28 -1.63 -1.05 -2.64 l 0.34 -1.46 l -0.61 -0.6 l -1.45 0.34 c -1.02 0.23 -2.07 -0.19 -2.65 -1.05 l -0.97 -1.47 h -0.78 Z M 12 10.5 c -0.83 0 -1.5 0.67 -1.5 1.5 s 0.67 1.5 1.5 1.5 c 0.82 0 1.5 -0.67 1.5 -1.5 s -0.68 -1.5 -1.5 -1.5 Z M 8.5 12 c 0 -1.93 1.56 -3.5 3.5 -3.5 c 1.93 0 3.5 1.57 3.5 3.5 s -1.57 3.5 -3.5 3.5 c -1.94 0 -3.5 -1.57 -3.5 -3.5 Z"/>
</svg>