<?xml version="1.0" ?>
<!-- Uploaded to: SVG Repo, www.svgrepo.com, Generator: SVG Repo Mixer Tools -->
<svg width="800px" height="800px" viewBox="0 0 96 96" version="1.1" xml:space="preserve" xmlns="http://www.w3.org/2000/svg" xmlns:xlink="http://www.w3.org/1999/xlink">
<style type="text/css">
	.st0{display:none;}
	.st1{fill:#FFFFFF;}
	.st2{fill:none;stroke:#000000;stroke-width:2;stroke-linecap:round;stroke-linejoin:round;stroke-miterlimit:10;}
	.st3{fill:#FFF8FA;}
	.st4{stroke:#000000;stroke-width:2;stroke-miterlimit:10;}
	.st5{fill:none;stroke:#000000;stroke-miterlimit:10;}
	.st6{fill:none;stroke:#000000;stroke-width:2;stroke-linecap:round;stroke-miterlimit:10;}
	.st7{fill:#231F20;stroke:#000000;stroke-width:0;stroke-miterlimit:10;}
	.st8{fill:#FF0D5C;}
	.st9{display:inline;}
	.st10{fill:none;stroke:#00D8E9;stroke-width:0.25;stroke-linecap:round;stroke-linejoin:round;stroke-miterlimit:10;}
	.st11{fill:none;stroke:#00D8E9;stroke-width:0.25;stroke-linejoin:round;stroke-miterlimit:10;}
	.st12{fill:none;stroke:#00D8E9;stroke-linecap:round;stroke-linejoin:round;stroke-miterlimit:10;}
	.st13{fill:none;stroke:#00D8E9;stroke-linejoin:round;stroke-miterlimit:10;}
</style>
<g id="banana"/>
<g id="Layer_12"/>
<g id="grape"/>
<g id="assasin"/>
<g id="gold"/>
<g id="mage_ass"/>
<g id="fighter"/>
<g id="SUPPORT"/>
<g id="marksman"/>
<g id="JUNGLE"/>
<g id="TANK"/>
<g class="st0" id="creditcard"/>
<g class="st0" id="CAKE"/>
<g class="st0" id="TOPI"/>
<g class="st0" id="SPATU"/>
<g class="st0" id="SETTING"/>
<g class="st0" id="CART"/>
<g class="st0" id="k3"/>
<g class="st0" id="computer"/>
<g class="st0" id="phone"/>
<g class="st0" id="location"/>
<g id="koper">
<g id="Layer_29"/>
<g>
<path d="M53.1,47.2c-1.5,3.4-3.9,6.2-7,8.1c-0.6,0.4-1.3,0.7-1.9,1c2.3,0.2,5.1-1.1,7-3.5C52.9,50.8,53.5,49.1,53.1,47.2z"/>
<path d="M51.2,42.4c2-8.7-3.2-17.4-11.4-19.3c-1.1-0.3-2.3-0.4-3.4-0.4c-2.7,0-5.4,0.8-7.9,2.3c-3.7,2.3-6.2,6-7.2,10.3    c-2,8.7,3.2,17.4,11.4,19.3c3.8,0.9,7.8,0.2,11.3-1.9C47.7,50.4,50.3,46.7,51.2,42.4z M36.2,57.5c-1.3,0-2.7-0.2-4-0.5    C22.6,54.7,16.7,44.7,19,34.7c1.1-5,4.1-9.2,8.3-11.9c4-2.5,8.6-3.3,13.1-2.2c0,0,0,0,0,0c9.6,2.3,15.5,12.3,13.2,22.3    c-1.1,5-4.1,9.2-8.3,11.9C42.5,56.5,39.3,57.5,36.2,57.5z"/>
<path d="M52.8,54.1c0,0-0.1,0.1-0.1,0.1c-0.4,0.5-0.8,0.9-1.3,1.3l20,20.6c0.1,0,0.2-0.1,0.3-0.2l2-2.1c0.1-0.1,0.2-0.2,0.2-0.3    L52.8,54.1z"/>
</g>
</g>
<g class="st0" id="guide">
<g class="st9">
<ellipse class="st10" cx="105.5" cy="106.5" rx="12.7" ry="12.7" transform="matrix(0.9985 -5.530002e-02 5.530002e-02 0.9985 -5.728 5.9971)"/>
<g>
<path class="st11" d="M137,106c0-17.7-14.3-32-32-32c-17.7,0-32,14.3-32,32c0,17.7,14.3,32,32,32C122.7,138,137,123.7,137,106z"/>
<g>
<path class="st10" d="M153.5,106c0,26.2-21.3,47.5-47.5,47.5c-26.2,0-47.5-21.3-47.5-47.5S79.8,58.5,106,58.5      C132.2,58.5,153.5,79.8,153.5,106z"/>
</g>
<circle class="st10" cx="106" cy="106" r="43.5"/>
<circle class="st10" cx="106" cy="106" r="39.3"/>
<line class="st10" x1="138.5" x2="72.5" y1="139.5" y2="73.5"/>
<line class="st10" x1="72" x2="139" y1="140" y2="73"/>
<circle class="st10" cx="106" cy="106" r="22.5"/>
</g>
</g>
</g>
<g id="MAGICAL"/>
<g id="phisical"/>
<g id="mango"/>
<g id="orange"/>
</svg>