<svg xmlns="http://www.w3.org/2000/svg"  
	 viewBox="0 0 24 24">
<path fill="rgb(29, 155, 240)" d="M 3 5.5 C 3 4.119 4.119 3 5.5 3 h 13 C 19.881 3 21 4.119 21 5.5 v 13 c 0 1.381 -1.119 2.5 -2.5 2.5 h -13 C 4.119 21 3 19.881 3 18.5 v -13 Z M 5.5 5 c -0.276 0 -0.5 0.224 -0.5 0.5 v 9.086 l 3 -3 l 3 3 l 5 -5 l 3 3 V 5.5 c 0 -0.276 -0.224 -0.5 -0.5 -0.5 h -13 Z M 19 15.414 l -3 -3 l -5 5 l -3 -3 l -3 3 V 18.5 c 0 0.276 0.224 0.5 0.5 0.5 h 13 c 0.276 0 0.5 -0.224 0.5 -0.5 v -3.086 Z M 9.75 7 C 8.784 7 8 7.784 8 8.75 s 0.784 1.75 1.75 1.75 s 1.75 -0.784 1.75 -1.75 S 10.716 7 9.75 7 Z"/>
</svg>