<?xml version="1.0" encoding="utf-8"?>
<!-- Svg Vector Icons : http://www.onlinewebfonts.com/icon -->
<!DOCTYPE svg PUBLIC "-//W3C//DTD SVG 1.1//EN" "http://www.w3.org/Graphics/SVG/1.1/DTD/svg11.dtd">
<svg version="1.1" xmlns="http://www.w3.org/2000/svg" xmlns:xlink="http://www.w3.org/1999/xlink" x="0px" y="0px" viewBox="0 0 256 256" enable-background="new 0 0 256 256" xml:space="preserve">
<metadata> Svg Vector Icons : http://www.onlinewebfonts.com/icon </metadata>
<g><g><path fill="#000000" d="M245.8,46.1c0-1.3-0.2-2.5-0.4-3.8c-1.8-8.5-7.8-12.8-17.9-12.8H35.8c-8.8,0-18.3,3.3-23,9.7c-0.4,0.3-0.7,0.6-1.1,1c-1.5,1.8-2,4-1.7,6.1C10,47,10,47.6,10,48.2v152.2c0,12.3,13.6,26.1,25.8,26.1h191.7c12.2,0,18.4-13.8,18.4-26.1c0-3.7,0-7.4,0-11.1c0-9.1,0-31.3,0-40.4c0-11.7,0-23.3,0-35c0-11.4,0-22.9,0-34.3c0-10.1,0.1-20.2,0-30.3C245.9,48.2,245.9,47.1,245.8,46.1z M35.8,44.4h191.7h0.1L128,124.8L28.7,44.8C31,44.3,33.8,44.4,35.8,44.4L35.8,44.4z M227.5,211.5H35.8c-4.1,0-11.1-7.1-11.1-11.2V60.7l98.4,79.7c1.4,1.2,3.1,1.8,4.8,1.8c1.7,0,3.4-0.6,4.8-1.8l98.4-79.7v139.7C231.2,204.5,231.6,211.5,227.5,211.5L227.5,211.5z"/></g></g>
</svg>