<svg xmlns="http://www.w3.org/2000/svg" viewBox="0 0 24 24">
    <path d="M 20 12 h 2 v 6.5 c 0 1.38 -1.12 2.5 -2.5 2.5 h -15 C 3.12 21 2 19.88 2 18.5 v -13 C 2 4.12 3.12 3 4.5 3 H 11 v 2 H 4.5 c -0.28 0 -0.5 0.22 -0.5 0.5 v 13 c 0 0.28 0.22 0.5 0.5 0.5 h 15 c 0.27 0 0.5 -0.22 0.5 -0.5 V 12 Z m 2.31 -6.78 l -6.33 7.18 c -0.2 2.02 -1.91 3.6 -3.98 3.6 H 8 v -4 c 0 -2.07 1.58 -3.78 3.6 -3.98 l 7.18 -6.33 c 0.99 -0.88 2.49 -0.83 3.43 0.1 c 0.93 0.94 0.98 2.44 0.1 3.43 Z m -1.52 -2.01 c -0.19 -0.19 -0.49 -0.2 -0.69 -0.02 l -6.08 5.36 c 0.59 0.35 1.08 0.84 1.43 1.43 l 5.36 -6.08 c 0.18 -0.2 0.17 -0.5 -0.02 -0.69 Z"/>
</svg>